<svg width="24" height="24" viewBox="0 0 24 24" fill="none" xmlns="http://www.w3.org/2000/svg">
<path fill-rule="evenodd" clip-rule="evenodd" d="M12 20.9971C16.9706 20.9971 21 16.9677 21 11.9971C21 7.02651 16.9706 2.99707 12 2.99707C7.02944 2.99707 3 7.02651 3 11.9971C3 16.9677 7.02944 20.9971 12 20.9971ZM15.7818 13.2109C15.9719 13.3165 16.222 13.3001 16.4344 13.1678C16.7609 12.9647 16.9332 12.5479 16.9077 12.0237C16.9075 12.0211 16.9077 12.0186 16.9079 12.0161C16.9081 12.0142 16.9083 12.0123 16.9083 12.0103C16.9081 12.0084 16.9078 12.0066 16.9076 12.0048C16.9072 12.0023 16.9068 11.9998 16.9068 11.9971C16.9068 9.29005 14.7052 7.0879 11.9988 7.0879C9.29247 7.0879 7.09056 9.29005 7.09056 11.9971C7.08953 12.801 7.28778 13.593 7.66807 14.3043L10.5087 9.81044C10.8515 9.29356 11.2044 9.26634 11.4403 9.33424C11.7968 9.43697 11.9846 9.77767 11.9988 10.3473V12.8228L13.2667 10.7974C13.4702 10.4715 14.011 9.60537 14.7295 9.81161C15.1537 9.93307 15.4074 10.3829 15.4074 11.0152V12.3243C15.4074 12.7619 15.5402 13.0765 15.7818 13.2109ZM17.9973 11.9836V11.9974C18.0348 12.917 17.6762 13.68 17.0107 14.0942C16.4618 14.4354 15.788 14.4624 15.2521 14.1644C14.6576 13.834 14.3166 13.1632 14.3166 12.3243V11.1863C14.2786 11.2405 14.237 11.3032 14.1918 11.3757L12.7828 13.6262C12.3072 14.3872 11.8541 14.4451 11.5576 14.3602C11.2615 14.2753 10.9083 13.9853 10.9083 13.0879V11.2197L8.34659 15.2722C9.24583 16.2744 10.5497 16.9063 11.9988 16.9063C13.2401 16.9065 14.4342 16.438 15.3356 15.5971C15.441 15.4989 15.5821 15.4467 15.7271 15.4522C15.8721 15.4577 16.0087 15.5205 16.1062 15.6263C16.3112 15.847 16.2981 16.1921 16.077 16.397C14.9651 17.4287 13.5166 17.9971 11.9988 17.9971C8.6912 17.9971 6 15.3053 6 11.9971C6 8.68858 8.6912 5.99707 11.9985 5.99707C15.2972 5.99707 17.9819 8.67336 17.997 11.9702L17.9973 11.9836Z" fill="#A0A0A0"/>
</svg>
