<svg width="24" height="24" viewBox="0 0 24 24" fill="none" xmlns="http://www.w3.org/2000/svg">
<path fill-rule="evenodd" clip-rule="evenodd" d="M14.298 20.7007C15.9234 20.2715 17.396 19.3956 18.5491 18.1723C19.7022 16.949 20.4896 15.4272 20.8222 13.7793C21.1547 12.1314 21.0191 10.4233 20.4306 8.84859C19.8421 7.27385 18.8244 5.89541 17.4926 4.86945C16.1609 3.84349 14.5685 3.21102 12.8957 3.04371C11.223 2.8764 9.53679 3.18094 8.02824 3.92282C6.5197 4.6647 5.2491 5.81426 4.3604 7.24125C3.4717 8.66824 3.00043 10.3156 3 11.9967C3.0001 14.031 3.68914 16.0052 4.95484 17.5978C6.22054 19.1904 7.98828 20.3073 9.97 20.7667C10.0463 20.6849 10.0876 20.5765 10.085 20.4647L10.081 19.9927L10.073 19.0407C7.744 19.5467 7.253 17.9177 7.253 17.9177C6.873 16.9497 6.323 16.6917 6.323 16.6917C5.563 16.1717 6.381 16.1817 6.381 16.1817C7.221 16.2417 7.663 17.0457 7.663 17.0457C8.41 18.3257 9.623 17.9567 10.1 17.7417C10.176 17.2007 10.393 16.8317 10.632 16.6217C8.772 16.4107 6.818 15.6917 6.818 12.4817C6.818 11.5667 7.144 10.8187 7.68 10.2327C7.594 10.0207 7.306 9.16971 7.762 8.01571C7.762 8.01571 8.465 7.79071 10.064 8.87571C10.7471 8.68943 11.4519 8.59427 12.16 8.59271C12.868 8.59398 13.5728 8.6888 14.256 8.87471C15.854 7.79071 16.556 8.01571 16.556 8.01571C17.013 9.16971 16.726 10.0207 16.639 10.2327C17.176 10.8187 17.5 11.5667 17.5 12.4817C17.5 15.6997 15.543 16.4087 13.678 16.6157C13.978 16.8747 14.246 17.3857 14.246 18.1667C14.246 18.9167 14.241 19.5677 14.238 19.9997L14.235 20.4657C14.235 20.5457 14.255 20.6287 14.298 20.7007Z" fill="#A0A0A0"/>
</svg>
