<svg width="24" height="24" viewBox="0 0 24 24" fill="none" xmlns="http://www.w3.org/2000/svg">
<path fill-rule="evenodd" clip-rule="evenodd" d="M12 2.99707C9.51472 2.99707 7.26472 4.00443 5.63604 5.63311C4.00736 7.26179 3 9.51179 3 11.9971C3 14.4824 4.00736 16.7324 5.63604 18.3611C7.26472 19.9897 9.51472 20.9971 12 20.9971C14.4853 20.9971 16.7353 19.9897 18.364 18.3611C19.9926 16.7324 21 14.4824 21 11.9971C21 9.51179 19.9926 7.26179 18.364 5.63311C16.7353 4.00443 14.4853 2.99707 12 2.99707ZM9.54314 15.8488V10.045H7.61404V15.8488H9.54314ZM8.57858 9.2525C9.2513 9.2525 9.67001 8.80682 9.67001 8.24986C9.65747 7.68036 9.2513 7.24705 8.59134 7.24705C7.93145 7.24705 7.5 7.68036 7.5 8.24986C7.5 8.80682 7.91862 9.2525 8.56601 9.2525H8.57858ZM10.6094 15.8489H12.5385V12.6078C12.5385 12.4343 12.551 12.261 12.6019 12.137C12.7414 11.7904 13.0588 11.4315 13.5917 11.4315C14.2898 11.4315 14.569 11.9637 14.569 12.744V15.8489H16.498V12.521C16.498 10.7383 15.5462 9.90879 14.277 9.90879C13.2363 9.90879 12.7795 10.4905 12.5256 10.8867H12.5385V10.045H10.6094C10.6347 10.5896 10.6094 15.8489 10.6094 15.8489Z" fill="#A0A0A0"/>
</svg>
