<svg width="24" height="24" viewBox="0 0 24 24" fill="none" xmlns="http://www.w3.org/2000/svg">
<path fill-rule="evenodd" clip-rule="evenodd" d="M12 2.99707C9.51472 2.99707 7.26472 4.00443 5.63604 5.63311C4.00736 7.26179 3 9.51179 3 11.9971C3 14.4824 4.00736 16.7324 5.63604 18.3611C7.26472 19.9897 9.51472 20.9971 12 20.9971C14.4853 20.9971 16.7353 19.9897 18.364 18.3611C19.9926 16.7324 21 14.4824 21 11.9971C21 9.51179 19.9926 7.26179 18.364 5.63311C16.7353 4.00443 14.4853 2.99707 12 2.99707ZM12.0004 11.4321L16.7304 8.65707C16.454 8.24808 15.994 8.00127 15.5004 7.99707H8.50042C8.00418 7.99685 7.53996 8.24207 7.26042 8.65207L12.0004 11.4321ZM12 12.427C12.1756 12.4267 12.3481 12.3802 12.5 12.292L17 9.66201V14.497C17 15.3255 16.3284 15.997 15.5 15.997H8.5C7.67157 15.997 7 15.3255 7 14.497V9.66201L11.5 12.297C11.6524 12.3834 11.8248 12.4282 12 12.427Z" fill="#A0A0A0"/>
</svg>
