<svg width="24" height="24" viewBox="0 0 24 24" fill="none" xmlns="http://www.w3.org/2000/svg">
<path fill-rule="evenodd" clip-rule="evenodd" d="M5.63604 5.63311C7.26472 4.00443 9.51472 2.99707 12 2.99707C14.4853 2.99707 16.7353 4.00443 18.364 5.63311C19.9926 7.26179 21 9.51179 21 11.9971C21 14.4824 19.9926 16.7324 18.364 18.3611C16.7353 19.9897 14.4853 20.9971 12 20.9971C9.51472 20.9971 7.26472 19.9897 5.63604 18.3611C4.00736 16.7324 3 14.4824 3 11.9971C3 9.51179 4.00736 7.26179 5.63604 5.63311ZM12.0574 9.27805C11.1618 9.6584 9.3718 10.4457 6.68745 11.6398C6.25155 11.8168 6.02321 11.9899 6.00242 12.1592C5.96729 12.4453 6.31822 12.558 6.79609 12.7114C6.86109 12.7323 6.92844 12.7539 6.99749 12.7768C7.46764 12.9329 8.10007 13.1154 8.42885 13.1227C8.72708 13.1292 9.05994 13.0037 9.42743 12.746C11.9355 11.0174 13.2302 10.1437 13.3115 10.1249C13.3688 10.1116 13.4483 10.0949 13.5021 10.1438C13.556 10.1926 13.5507 10.2851 13.545 10.31C13.5102 10.4613 12.1327 11.7689 11.4198 12.4455C11.1976 12.6565 11.0399 12.8061 11.0077 12.8403C10.9355 12.9168 10.862 12.9893 10.7913 13.0589C10.3545 13.4888 10.0269 13.8112 10.8094 14.3376C11.1854 14.5906 11.4863 14.7998 11.7865 15.0086C12.1143 15.2365 12.4413 15.4638 12.8643 15.747C12.9721 15.8191 13.0751 15.8941 13.1753 15.967C13.5568 16.2447 13.8996 16.4942 14.323 16.4544C14.5691 16.4313 14.8232 16.1951 14.9523 15.4906C15.2574 13.8255 15.857 10.2179 15.9956 8.73122C16.0077 8.60098 15.9924 8.43428 15.9802 8.36111C15.9679 8.28794 15.9423 8.18368 15.8491 8.1065C15.7388 8.0151 15.5685 7.99583 15.4923 7.99713C15.146 8.00343 14.6146 8.19207 12.0574 9.27805Z" fill="#A0A0A0"/>
</svg>
