<svg width="24" height="24" viewBox="0 0 24 24" fill="none" xmlns="http://www.w3.org/2000/svg">
<path fill-rule="evenodd" clip-rule="evenodd" d="M5.63604 5.63311C7.26472 4.00443 9.51472 2.99707 12 2.99707C14.4853 2.99707 16.7353 4.00443 18.364 5.63311C19.9926 7.26179 21 9.51179 21 11.9971C21 14.4824 19.9926 16.7324 18.364 18.3611C16.7353 19.9897 14.4853 20.9971 12 20.9971C9.51472 20.9971 7.26472 19.9897 5.63604 18.3611C4.00736 16.7324 3 14.4824 3 11.9971C3 9.51179 4.00736 7.26179 5.63604 5.63311ZM15.9921 10.2877V10.0259C16.3979 9.73791 16.7382 9.37142 17 8.95257C16.6335 9.12272 16.2408 9.22744 15.822 9.27979C16.2408 9.01801 16.5681 8.62534 16.7251 8.14105C16.3194 8.37665 15.8874 8.54681 15.4162 8.63843C15.0497 8.24576 14.5131 7.99707 13.9241 7.99707C12.7853 7.99707 11.8691 8.9133 11.8691 10.0521C11.8691 10.2091 11.8822 10.3793 11.9215 10.5233C10.2199 10.4317 8.70157 9.62011 7.69372 8.37665C7.52356 8.6777 7.41885 9.0311 7.41885 9.41068C7.41885 10.1306 7.78534 10.7589 8.33508 11.1254C7.99476 11.1123 7.68063 11.0207 7.40576 10.8636V10.8898C7.40576 11.8845 8.11257 12.7091 9.05497 12.8924C8.88482 12.9447 8.70157 12.9709 8.51832 12.9709C8.37435 12.9709 8.25654 12.9578 8.12565 12.9317C8.37435 13.7432 9.13351 14.3453 10.0366 14.3584C9.32984 14.9081 8.43979 15.2353 7.48429 15.2353C7.32723 15.2353 7.15707 15.2222 7 15.2091C7.91623 15.7851 8.98953 16.1254 10.1545 16.1254C13.9241 16.1254 15.9921 12.9971 15.9921 10.2877Z" fill="#A0A0A0"/>
</svg>
