<svg width="40" height="40" viewBox="0 0 40 40" fill="none" xmlns="http://www.w3.org/2000/svg">
<path d="M19.9997 13.3334C16.3863 13.3334 13.333 16.3867 13.333 20C13.333 23.6134 16.3863 26.6667 19.9997 26.6667C23.613 26.6667 26.6663 23.6134 26.6663 20C26.6663 16.3867 23.613 13.3334 19.9997 13.3334ZM19.9997 23.3334C18.2247 23.3334 16.6663 21.775 16.6663 20C16.6663 18.225 18.2247 16.6667 19.9997 16.6667C21.7747 16.6667 23.333 18.225 23.333 20C23.333 21.775 21.7747 23.3334 19.9997 23.3334Z" fill="white"/>
<path d="M33.333 8.33338H29.023L24.5113 3.82171C24.3568 3.66664 24.1732 3.54366 23.971 3.45985C23.7687 3.37604 23.5519 3.33306 23.333 3.33338H16.6663C16.4474 3.33306 16.2306 3.37604 16.0284 3.45985C15.8262 3.54366 15.6425 3.66664 15.488 3.82171L10.9763 8.33338H6.66634C4.82801 8.33338 3.33301 9.82838 3.33301 11.6667V30C3.33301 31.8384 4.82801 33.3334 6.66634 33.3334H33.333C35.1713 33.3334 36.6663 31.8384 36.6663 30V11.6667C36.6663 9.82838 35.1713 8.33338 33.333 8.33338ZM6.66634 30V11.6667H11.6663C12.1097 11.6667 12.533 11.4917 12.8447 11.1784L17.3563 6.66671H22.643L27.1547 11.1784C27.3092 11.3334 27.4928 11.4564 27.6951 11.5402C27.8973 11.624 28.1141 11.667 28.333 11.6667H33.333L33.3363 30H6.66634Z" fill="white"/>
</svg>
