<svg width="24.000000" height="24.000000" viewBox="0 0 24 24" fill="none" xmlns="http://www.w3.org/2000/svg" xmlns:xlink="http://www.w3.org/1999/xlink">
	<desc>
			Created with Pixso.
	</desc>
	<defs>
		<clipPath id="clip738_846">
			<rect id="globe-alt" width="24.000000" height="24.000000" fill="white" fill-opacity="0"/>
		</clipPath>
	</defs>
	<g clip-path="url(#clip738_846)">
		<path id="Vector" d="M12 22C17.5229 22 22 17.5229 22 12C22 6.47715 17.5229 2 12 2C6.47705 2 2 6.47715 2 12C2 17.5229 6.47705 22 12 22ZM15.1172 19.1279C17.6919 18.0003 19.5386 15.5186 19.7561 12.5833C18.8418 13.082 17.689 13.4909 16.3745 13.7756C16.2092 15.8529 15.7585 17.7079 15.1172 19.1279ZM8.88281 4.87208C6.71924 5.81962 5.06982 7.7234 4.46899 10.0489C4.72632 10.2931 5.16455 10.5934 5.83154 10.8898C6.33008 11.1114 6.91162 11.3109 7.56152 11.4774C7.62061 8.89536 8.11499 6.5721 8.88281 4.87208ZM9.88965 14.1231C10.0637 15.7417 10.428 17.1336 10.8879 18.1686C11.2146 18.9037 11.5461 19.3609 11.802 19.6043C11.8931 19.691 11.9587 19.7371 12 19.7609C12.0413 19.7371 12.1069 19.691 12.198 19.6043C12.4539 19.3609 12.7854 18.9037 13.1121 18.1686C13.572 17.1336 13.9363 15.7417 14.1104 14.1231C13.4302 14.188 12.7241 14.2222 12 14.2222C11.2759 14.2222 10.5698 14.188 9.88965 14.1231ZM7.62549 13.7756C7.79077 15.8529 8.24146 17.7079 8.88281 19.1279C6.30811 18.0003 4.46143 15.5184 4.24365 12.5833C5.1582 13.082 6.31104 13.4909 7.62549 13.7756ZM14.2219 11.8773C13.521 11.9566 12.7771 12 12 12C11.2231 12 10.479 11.9566 9.77808 11.8773C9.79272 9.40453 10.2476 7.27227 10.8879 5.83147C11.2146 5.09637 11.5461 4.63907 11.802 4.39561C11.8931 4.30902 11.9587 4.26288 12 4.23907C12.0413 4.26288 12.1069 4.30902 12.198 4.39561C12.4539 4.63907 12.7854 5.09637 13.1121 5.83147C13.7524 7.27227 14.2073 9.40453 14.2219 11.8773ZM16.4385 11.4774C16.3794 8.89536 15.885 6.5721 15.1172 4.87208C17.281 5.81962 18.9304 7.72341 19.531 10.0489C19.2737 10.2931 18.8354 10.5934 18.1685 10.8898C17.6699 11.1114 17.0884 11.3109 16.4385 11.4774Z" fill="#0B090A" fill-opacity="1.000000" fill-rule="evenodd"/>
	</g>
</svg>
