<svg width="28.000000" height="28.000000" viewBox="0 0 28 28" fill="none" xmlns="http://www.w3.org/2000/svg" xmlns:xlink="http://www.w3.org/1999/xlink">

	<defs>
		<clipPath id="clip738_827">
			<rect id="userlane" width="28.000000" height="28.000000" fill="white" fill-opacity="0"/>
		</clipPath>
	</defs>
	<g clip-path="url(#clip738_827)">
		<path id="Vector" d="M17.5 4.66667L24.5 4.66667L24.5 11.6667L17.5 11.6667L17.5 4.66667Z" fill="#FFFFFF" fill-opacity="1.000000" fill-rule="evenodd"/>
		<path id="Vector" d="M3.5 14C3.5 19.799 8.20093 24.5 14 24.5C19.7991 24.5 24.5 19.799 24.5 14L19.8333 14C19.8333 17.2216 17.2217 19.8333 14 19.8333C10.7783 19.8333 8.16675 17.2216 8.16675 14L3.5 14Z" fill="#FFFFFF" fill-opacity="1.000000" fill-rule="evenodd"/>
		<path id="Vector" d="M7 11.6667C8.93311 11.6667 10.5 10.0997 10.5 8.16667C10.5 6.23368 8.93311 4.66667 7 4.66667C5.06689 4.66667 3.5 6.23368 3.5 8.16667C3.5 10.0997 5.06689 11.6667 7 11.6667Z" fill="#FFFFFF" fill-opacity="1.000000" fill-rule="evenodd"/>
	</g>
</svg>
