<svg width="62.000000" height="38.000000" viewBox="0 0 62 38" fill="none" xmlns="http://www.w3.org/2000/svg" xmlns:xlink="http://www.w3.org/1999/xlink">
	<defs/>
	<path id="Vector" d="M3 0L6.11877 0C7.77563 0 9.11877 1.34315 9.11877 3L9.11877 35C9.11877 36.6569 7.77563 38 6.11877 38L3 38C1.34314 38 0 36.6569 0 35L0 3C0 1.34315 1.34314 0 3 0Z" fill="#FFFFFF" fill-opacity="1.000000" fill-rule="evenodd"/>
	<path id="Vector" d="M43.8596 18.9998C43.8596 23.7118 41.8137 27.5118 38.2676 27.5118L24.9917 27.5118C23.8872 27.5118 22.9917 26.6163 22.9917 25.5118L22.9917 12.4878C22.9917 11.3832 23.8872 10.4878 24.9917 10.4878L38.2676 10.4878C41.8137 10.4878 43.8596 14.2878 43.8596 18.9998Z" fill="#FFFFFF" fill-opacity="1.000000" fill-rule="evenodd"/>
	<path id="Vector" d="M55.7583 0L60 0C61.1045 0 62 0.89543 62 2L62 35.696C62 36.8006 61.1045 37.696 60 37.696L55.9221 37.696C54.1592 37.696 53.1431 35.4667 54.0413 33.9497C56.4685 29.8491 57.9082 24.5512 57.9082 19C57.8069 13.244 56.3521 7.90693 53.8787 3.79787C52.9614 2.274 53.9795 0 55.7583 0Z" fill="#FFFFFF" fill-opacity="1.000000" fill-rule="evenodd"/>
</svg>
