<svg width="24.000000" height="24.000000" viewBox="0 0 24 24" fill="none" xmlns="http://www.w3.org/2000/svg" xmlns:xlink="http://www.w3.org/1999/xlink">
	<desc>
			Created with Pixso.
	</desc>
	<defs>
		<clipPath id="clip738_847">
			<rect id="moon" width="24.000000" height="24.000000" fill="white" fill-opacity="0"/>
		</clipPath>
	</defs>
	<g clip-path="url(#clip738_847)">
		<path id="Vector" d="M12.2256 2.00253C9.5918 1.94346 6.93896 2.9189 4.92896 4.92891C1.02368 8.83415 1.02368 15.1658 4.92896 19.071C8.83423 22.9763 15.1658 22.9763 19.071 19.071C21.0811 17.061 22.0564 14.4082 21.9976 11.7743C21.9795 10.9772 21.8669 10.1818 21.6594 9.40643C21.0933 9.9488 20.5078 10.4276 19.9163 10.8425C18.5649 11.7906 17.1826 12.4053 15.9302 12.6837C14.0242 13.1072 12.7156 12.7156 12 12C11.2844 11.2844 10.8928 9.97588 11.3164 8.0699C11.5947 6.81738 12.2095 5.43511 13.1575 4.08368C13.5725 3.49221 14.0513 2.90664 14.5935 2.34046C13.8181 2.13305 13.0227 2.02041 12.2256 2.00253ZM17.657 17.6568C18.9082 16.4056 19.6582 14.8431 19.9072 13.2186C16.3611 15.2643 12.6379 15.4664 10.5857 13.4142C8.53369 11.362 8.7356 7.63895 10.7815 4.09281C9.15698 4.34184 7.59424 5.09193 6.34326 6.34313C3.21899 9.46732 3.21899 14.5326 6.34326 17.6568C9.46729 20.781 14.5327 20.781 17.657 17.6568Z" fill="#0B090A" fill-opacity="1.000000" fill-rule="evenodd"/>
	</g>
</svg>
