<svg width="18" height="19" viewBox="0 0 18 19" fill="none" xmlns="http://www.w3.org/2000/svg">
<path fill-rule="evenodd" clip-rule="evenodd" d="M2.2278 16.9532C1.53137 16.2969 1.06308 15.5175 0.822933 14.6152C0.582785 13.7129 0.582785 12.8164 0.822933 11.9258C1.06308 11.0352 1.53137 10.2617 2.2278 9.60547L10.3328 1.66016C10.8371 1.16797 11.4435 0.828125 12.1519 0.640625C12.8603 0.453125 13.5688 0.453125 14.2772 0.640625C14.9856 0.828125 15.604 1.17383 16.1323 1.67773C16.6606 2.18164 17.0209 2.7793 17.213 3.47071C17.4052 4.16211 17.4052 4.85352 17.213 5.54492C17.0209 6.23633 16.6606 6.83984 16.1323 7.35547L9.32417 14.0351C8.74781 14.5742 8.06339 14.8437 7.2709 14.8437C6.47841 14.8437 5.794 14.5684 5.21764 14.0176C4.64128 13.4668 4.35311 12.8047 4.35311 12.0312C4.35311 11.2578 4.64128 10.5898 5.21764 10.0273L11.0172 4.36718C11.0893 4.29687 11.1853 4.26172 11.3054 4.26172C11.4255 4.26172 11.5215 4.29687 11.5936 4.36718L12.2059 4.96485C12.302 5.05859 12.35 5.16406 12.35 5.28125C12.35 5.39844 12.302 5.49218 12.2059 5.5625L6.4424 11.2227C6.20224 11.4336 6.08216 11.6973 6.08216 12.0137C6.08216 12.3301 6.20224 12.5996 6.4424 12.8223C6.68254 13.0449 6.96472 13.1562 7.28891 13.1562C7.61312 13.1562 7.88328 13.0508 8.09941 12.8398L14.9436 6.16015C15.3999 5.71484 15.6281 5.16992 15.6281 4.52539C15.6281 3.88086 15.394 3.33008 14.9256 2.87304C14.4573 2.41601 13.893 2.1875 13.2326 2.1875C12.5722 2.1875 12.0018 2.41016 11.5215 2.85547L3.41653 10.7656C2.7201 11.4688 2.37189 12.3066 2.37189 13.2793C2.37189 14.252 2.7261 15.084 3.43455 15.7754C4.14297 16.4668 4.99551 16.8125 5.99211 16.8125C6.98872 16.8125 7.84726 16.461 8.5677 15.7578L15.5921 8.86718C15.6881 8.79687 15.7961 8.76172 15.9162 8.76172C16.0363 8.76172 16.1323 8.79687 16.2043 8.86718L16.8167 9.46485C16.9129 9.55859 16.9609 9.66406 16.9609 9.78125C16.9609 9.89844 16.9129 9.99218 16.8167 10.0625L9.79245 16.9532C9.09602 17.6328 8.29152 18.0899 7.37896 18.3242C6.4664 18.5586 5.54784 18.5586 4.62328 18.3242C3.69871 18.0899 2.90021 17.6328 2.2278 16.9532Z" fill="#3174F4"/>
</svg>
