<svg width="16" height="16" viewBox="0 0 16 16" fill="none" xmlns="http://www.w3.org/2000/svg">
<path d="M8 3.2C7.16564 3.20106 6.36575 3.53298 5.77576 4.12296C5.18578 4.71295 4.85386 5.51284 4.8528 6.3472H6.4528C6.4528 5.4936 7.1472 4.8 8 4.8C8.8528 4.8 9.5472 5.4936 9.5472 6.3472C9.5472 6.8256 9.1624 7.1728 8.5744 7.648C8.38231 7.79848 8.19782 7.95841 8.0216 8.1272C7.2232 8.9248 7.2 9.772 7.2 9.8664V10.4H8.8L8.7992 9.8936C8.8 9.8808 8.8256 9.5848 9.152 9.2592C9.272 9.1392 9.4232 9.0192 9.58 8.8928C10.2032 8.388 11.1464 7.6256 11.1464 6.3472C11.1458 5.51284 10.8141 4.71283 10.2242 4.12278C9.63428 3.53272 8.83436 3.20085 8 3.2ZM7.2 11.2H8.8V12.8H7.2V11.2Z" fill="#A0A0A0"/>
<path d="M8 0C3.5888 0 0 3.5888 0 8C0 12.4112 3.5888 16 8 16C12.4112 16 16 12.4112 16 8C16 3.5888 12.4112 0 8 0ZM8 14.4C4.4712 14.4 1.6 11.5288 1.6 8C1.6 4.4712 4.4712 1.6 8 1.6C11.5288 1.6 14.4 4.4712 14.4 8C14.4 11.5288 11.5288 14.4 8 14.4Z" fill="#A0A0A0"/>
</svg>
