<svg width="58" height="58" viewBox="0 0 60 58" fill="none" xmlns="http://www.w3.org/2000/svg">
<path d="M31.9997 45.3333C37.8906 45.3333 42.6663 40.5576 42.6663 34.6666H21.333C21.333 40.5576 26.1086 45.3333 31.9997 45.3333Z" fill="#0B090A"/>
<path d="M26.6663 26.6667C26.6663 28.1395 25.4724 29.3333 23.9997 29.3333C22.5269 29.3333 21.333 28.1395 21.333 26.6667C21.333 25.1939 22.5269 24 23.9997 24C25.4724 24 26.6663 25.1939 26.6663 26.6667Z" fill="#0B090A"/>
<path d="M39.9997 29.3333C41.4725 29.3333 42.6663 28.1395 42.6663 26.6667C42.6663 25.1939 41.4725 24 39.9997 24C38.5269 24 37.333 25.1939 37.333 26.6667C37.333 28.1395 38.5269 29.3333 39.9997 29.3333Z" fill="#0B090A"/>
<path fill-rule="evenodd" clip-rule="evenodd" d="M58.6663 32C58.6663 46.7275 46.7271 58.6667 31.9997 58.6667C17.2721 58.6667 5.33301 46.7275 5.33301 32C5.33301 17.2724 17.2721 5.33337 31.9997 5.33337C46.7271 5.33337 58.6663 17.2724 58.6663 32ZM53.333 32C53.333 43.7822 43.7818 53.3334 31.9997 53.3334C20.2176 53.3334 10.6663 43.7822 10.6663 32C10.6663 20.218 20.2176 10.6667 31.9997 10.6667C43.7818 10.6667 53.333 20.218 53.333 32Z" fill="#0B090A"/>
</svg>
