<svg width="20" height="20" viewBox="0 0 20 20" fill="none" xmlns="http://www.w3.org/2000/svg">
<path d="M19.947 7.17901C19.8842 6.99388 19.7685 6.83121 19.6142 6.71107C19.46 6.59094 19.2739 6.51861 19.079 6.50301L13.378 6.05001L10.911 0.589014C10.8325 0.413127 10.7047 0.263736 10.5431 0.158872C10.3815 0.0540081 10.193 -0.00184725 10.0004 -0.00195297C9.80771 -0.0020587 9.61916 0.0535897 9.45745 0.158276C9.29574 0.262963 9.16779 0.412213 9.08903 0.588015L6.62203 6.05001L0.921026 6.50301C0.729482 6.51819 0.546364 6.58822 0.393581 6.70475C0.240798 6.82127 0.124819 6.97934 0.0595194 7.16004C-0.00578038 7.34075 -0.0176359 7.53645 0.0253712 7.72372C0.0683784 7.91099 0.164427 8.0819 0.302026 8.21601L4.51503 12.323L3.02503 18.775C2.97978 18.9703 2.99428 19.1747 3.06665 19.3617C3.13901 19.5486 3.26589 19.7095 3.43083 19.8235C3.59577 19.9374 3.79115 19.9991 3.99161 20.0007C4.19208 20.0022 4.38837 19.9434 4.55503 19.832L10 16.202L15.445 19.832C15.6154 19.9451 15.8162 20.0033 16.0207 19.9988C16.2251 19.9944 16.4232 19.9274 16.5884 19.8069C16.7536 19.6865 16.878 19.5183 16.9448 19.3251C17.0116 19.1318 17.0176 18.9228 16.962 18.726L15.133 12.326L19.669 8.24401C19.966 7.97601 20.075 7.55801 19.947 7.17901Z" fill="#3174F4"/>
</svg>
