<svg width="41" height="40" viewBox="0 0 41 40" fill="none" xmlns="http://www.w3.org/2000/svg">
<path d="M15.4967 39.9999C19.503 39.9999 23.2712 38.4398 26.1234 35.5857L39.9323 21.3927C40.2064 21.1108 40.3912 20.7543 40.4638 20.3679C40.5364 19.9815 40.4936 19.5823 40.3405 19.2202C40.1875 18.858 39.9312 18.549 39.6035 18.3317C39.2758 18.1144 38.8914 17.9985 38.4982 17.9985H31.8958L40.2464 2.96947C40.4555 2.58959 40.5356 2.15209 40.4747 1.72276C40.4138 1.29342 40.2152 0.895462 39.9087 0.588724C39.6022 0.281987 39.2044 0.0830539 38.7751 0.021841C38.3458 -0.0393719 37.9082 0.0404444 37.5282 0.249288L23.3072 8.14982L24.4593 2.39143C24.5406 1.98394 24.493 1.56124 24.323 1.18207C24.1531 0.80289 23.8692 0.486056 23.511 0.27558C23.1527 0.0651039 22.7378 -0.0285648 22.3238 0.00758547C21.9099 0.0437357 21.5175 0.20791 21.2011 0.477303L4.888 14.3922C-0.960389 20.2406 -0.960389 29.7573 4.888 35.6057C6.27792 37.0032 7.93122 38.1111 9.7522 38.8654C11.5732 39.6197 13.5257 40.0053 15.4967 39.9999ZM7.60018 17.3284L19.405 7.26576L18.9089 9.74592L18.5369 11.606V11.608L17.6889 15.8463L33.3499 7.14575L26.7495 19.0265L26.7475 19.0285L25.0994 21.9987H33.7619L23.2752 32.7775C21.1971 34.8556 18.4349 35.9997 15.4967 35.9997C12.5585 35.9997 9.79433 34.8556 7.71619 32.7775C3.42991 28.4892 3.4299 21.5087 7.60018 17.3284Z" fill="#3174F4"/>
<path d="M15.5126 31.3201C17.1054 31.326 18.6524 30.7873 19.8971 29.7933C21.1417 28.7993 22.0092 27.4097 22.3557 25.855C22.7021 24.3002 22.5068 22.6738 21.802 21.2453C21.0972 19.8169 19.9254 18.6722 18.4807 18.0012C18.4907 18.1072 18.5128 18.2112 18.5128 18.3192C18.5128 19.1149 18.1967 19.8781 17.634 20.4407C17.0714 21.0034 16.3083 21.3194 15.5126 21.3194C14.7168 21.3194 13.9537 21.0034 13.3911 20.4407C12.8284 19.8781 12.5123 19.1149 12.5123 18.3192C12.5123 18.2112 12.5344 18.1072 12.5444 18.0012C11.0997 18.6722 9.92787 19.8169 9.22309 21.2453C8.51831 22.6738 8.32296 24.3002 8.66944 25.855C9.01592 27.4097 9.88341 28.7993 11.128 29.7933C12.3727 30.7873 13.9197 31.326 15.5126 31.3201Z" fill="#3174F4"/>
</svg>
