<svg width="40" height="40" viewBox="0 0 40 40" fill="none" xmlns="http://www.w3.org/2000/svg">
<path d="M33.6842 16.8421V10.5263C33.6842 8.20421 31.7958 6.31579 29.4737 6.31579H23.1579C23.1579 2.83368 20.3242 0 16.8421 0C13.36 0 10.5263 2.83368 10.5263 6.31579H4.21053C1.88842 6.31579 0 8.20421 0 10.5263V18.6968L1.38737 19.2C3.07579 19.8105 4.21053 21.4021 4.21053 23.1579C4.21053 24.9137 3.07579 26.5053 1.38737 27.1158L0 27.6189V35.7895C0 38.1116 1.88842 40 4.21053 40H12.3811L12.8842 38.6126C13.4947 36.9242 15.0863 35.7895 16.8421 35.7895C18.5979 35.7895 20.1895 36.9242 20.8 38.6126L21.3032 40H29.4737C31.7958 40 33.6842 38.1116 33.6842 35.7895V29.4737C37.1663 29.4737 40 26.64 40 23.1579C40 19.6758 37.1663 16.8421 33.6842 16.8421ZM33.6842 25.2632H29.4737L29.4674 35.7895H24.1095C22.6126 33.2211 19.8526 31.5789 16.8421 31.5789C13.8316 31.5789 11.0716 33.2211 9.57474 35.7895H4.21053V30.4253C6.77895 28.9284 8.42105 26.1684 8.42105 23.1579C8.42105 20.1474 6.77895 17.3874 4.21053 15.8905V10.5263H14.7368V6.31579C14.7368 5.75744 14.9586 5.22196 15.3535 4.82714C15.7483 4.43233 16.2838 4.21053 16.8421 4.21053C17.4005 4.21053 17.9359 4.43233 18.3308 4.82714C18.7256 5.22196 18.9474 5.75744 18.9474 6.31579V10.5263H29.4737V21.0526H33.6842C34.2426 21.0526 34.778 21.2744 35.1729 21.6693C35.5677 22.0641 35.7895 22.5995 35.7895 23.1579C35.7895 23.7162 35.5677 24.2517 35.1729 24.6465C34.778 25.0414 34.2426 25.2632 33.6842 25.2632Z" fill="#3174F4"/>
</svg>
