<svg width="37" height="40" viewBox="0 0 37 40" fill="none" xmlns="http://www.w3.org/2000/svg">
<g clip-path="url(#clip0_738_901)">
<path d="M36.4881 9.80041C36.4548 9.46434 36.3369 9.14219 36.1452 8.86414C35.9535 8.58608 35.6945 8.36121 35.3922 8.21058L19.3939 0.21141C19.116 0.0723835 18.8096 0 18.499 0C18.1883 0 17.8819 0.0723835 17.604 0.21141L1.60572 8.21058C1.3043 8.36207 1.046 8.58721 0.854779 8.86513C0.663556 9.14305 0.545595 9.46475 0.511832 9.80041C0.489834 10.0144 -1.40997 31.3322 17.688 39.8253C17.9432 39.9404 18.22 40 18.5 40C18.7799 40 19.0567 39.9404 19.3119 39.8253C38.4099 31.3322 36.5101 10.0164 36.4881 9.80041ZM18.5 35.7917C4.96337 29.2484 4.32343 15.2838 4.43342 11.2703L18.5 4.23699L32.5565 11.2663C32.6305 15.2438 31.9006 29.3004 18.5 35.7917Z" fill="#3174F4"/>
<path d="M16.4992 21.1713L11.9136 16.5858L9.08594 19.4135L16.4992 26.8267L27.912 15.4139L25.0843 12.5862L16.4992 21.1713Z" fill="#3174F4"/>
</g>
<defs>
<clipPath id="clip0_738_901">
<rect width="36.0995" height="40" fill="white" transform="translate(0.450195)"/>
</clipPath>
</defs>
</svg>
