<svg width="41" height="40" viewBox="0 0 41 40" fill="none" xmlns="http://www.w3.org/2000/svg">
<g clip-path="url(#clip0_738_873)">
<path d="M20.5 0C9.472 0 0.5 8.972 0.5 20C0.5 31.028 9.472 40 20.5 40C31.528 40 40.5 31.028 40.5 20C40.5 8.972 31.528 0 20.5 0ZM20.5 36C11.678 36 4.5 28.822 4.5 20C4.5 11.178 11.678 4 20.5 4C29.322 4 36.5 11.178 36.5 20C36.5 28.822 29.322 36 20.5 36Z" fill="#3174F4"/>
<path d="M26.1559 25.6562C25.0519 26.763 23.6471 27.5211 22.1159 27.8362C21.0491 28.0502 19.9506 28.0502 18.8839 27.8362C18.3709 27.7297 17.8692 27.5743 17.3859 27.3722C16.9113 27.1695 16.4567 26.9231 16.0279 26.6362C15.1776 26.0565 14.4435 25.3225 13.8639 24.4722L10.5479 26.7062C10.9779 27.3442 11.4719 27.9442 12.0139 28.4842C13.1267 29.6008 14.4489 30.4868 15.9048 31.0915C17.3607 31.6962 18.9216 32.0077 20.498 32.0081C22.0745 32.0085 23.6355 31.6977 25.0917 31.0937C26.5478 30.4897 27.8705 29.6043 28.9839 28.4882C29.5279 27.9462 30.0239 27.3462 30.4519 26.7062L27.1359 24.4722C26.8499 24.8942 26.5219 25.2922 26.1559 25.6562Z" fill="#3174F4"/>
<path d="M13.5 20C15.1569 20 16.5 18.6569 16.5 17C16.5 15.3431 15.1569 14 13.5 14C11.8431 14 10.5 15.3431 10.5 17C10.5 18.6569 11.8431 20 13.5 20Z" fill="#3174F4"/>
<path d="M27.4998 16C23.4998 16 22.4998 20 22.4998 20H32.4998C32.4998 20 31.4978 16 27.4998 16Z" fill="#3174F4"/>
</g>
<defs>
<clipPath id="clip0_738_873">
<rect width="40" height="40" fill="white" transform="translate(0.5)"/>
</clipPath>
</defs>
</svg>
