<svg width="40" height="40" viewBox="0 0 40 40" fill="none" xmlns="http://www.w3.org/2000/svg">
<path d="M20.0007 13.3335C16.3873 13.3335 13.334 16.3868 13.334 20.0002C13.334 23.6135 16.3873 26.6668 20.0007 26.6668C23.614 26.6668 26.6673 23.6135 26.6673 20.0002C26.6673 16.3868 23.614 13.3335 20.0007 13.3335ZM20.0007 23.3335C18.2257 23.3335 16.6673 21.7752 16.6673 20.0002C16.6673 18.2252 18.2257 16.6668 20.0007 16.6668C21.7757 16.6668 23.334 18.2252 23.334 20.0002C23.334 21.7752 21.7757 23.3335 20.0007 23.3335Z" fill="white"/>
<path d="M33.334 8.3335H29.024L24.5123 3.82183C24.3578 3.66676 24.1742 3.54378 23.9719 3.45997C23.7697 3.37616 23.5529 3.33318 23.334 3.3335H16.6673C16.4484 3.33318 16.2316 3.37616 16.0294 3.45997C15.8271 3.54378 15.6435 3.66676 15.489 3.82183L10.9773 8.3335H6.66732C4.82898 8.3335 3.33398 9.8285 3.33398 11.6668V30.0002C3.33398 31.8385 4.82898 33.3335 6.66732 33.3335H33.334C35.1723 33.3335 36.6673 31.8385 36.6673 30.0002V11.6668C36.6673 9.8285 35.1723 8.3335 33.334 8.3335ZM6.66732 30.0002V11.6668H11.6673C12.1107 11.6668 12.534 11.4918 12.8457 11.1785L17.3573 6.66683H22.644L27.1557 11.1785C27.3102 11.3336 27.4938 11.4565 27.696 11.5404C27.8983 11.6242 28.1151 11.6671 28.334 11.6668H33.334L33.3373 30.0002H6.66732Z" fill="white"/>
</svg>
