<svg xmlns="http://www.w3.org/2000/svg" width="547" height="749" viewBox="0 0 547 749" version="1.1"><path d="M 88.250 2.739 C 91.412 2.937, 96.587 2.937, 99.750 2.739 C 102.912 2.541, 100.325 2.378, 94 2.378 C 87.675 2.378, 85.087 2.541, 88.250 2.739 M 447.250 2.743 C 451.512 2.931, 458.488 2.931, 462.750 2.743 C 467.012 2.556, 463.525 2.402, 455 2.402 C 446.475 2.402, 442.988 2.556, 447.250 2.743 M 483.483 130 C 483.483 193.525, 483.603 219.513, 483.750 187.750 C 483.896 155.988, 483.896 104.013, 483.750 72.250 C 483.603 40.488, 483.483 66.475, 483.483 130 M 455.370 133 C 455.370 138.775, 455.535 141.137, 455.737 138.250 C 455.939 135.363, 455.939 130.637, 455.737 127.750 C 455.535 124.862, 455.370 127.225, 455.370 133 M 360.286 131.500 C 360.294 134.250, 360.488 135.256, 360.718 133.736 C 360.947 132.216, 360.941 129.966, 360.704 128.736 C 360.467 127.506, 360.279 128.750, 360.286 131.500 M 338.437 340.250 L 335.500 343.500 338.750 340.563 C 340.538 338.948, 342 337.485, 342 337.313 C 342 336.540, 341.175 337.221, 338.437 340.250 M 247 404.090 C 247 406.314, 259.231 438.526, 260.345 439.234 C 262.427 440.560, 285.654 440.133, 286.702 438.750 C 288.072 436.942, 299 406.663, 299 404.675 C 299 403.151, 296.652 403, 273 403 C 254.895 403, 247 403.331, 247 404.090 M 260.234 455.250 C 259.678 455.938, 256.248 471.049, 252.611 488.830 L 245.999 521.160 257.249 543.059 L 268.500 564.957 273.172 564.979 L 277.844 565 289.069 543.250 L 300.293 521.500 294.001 490 C 290.540 472.675, 287.335 457.488, 286.879 456.250 C 286.080 454.082, 285.596 454, 273.647 454 C 264.931 454, 260.944 454.372, 260.234 455.250" stroke="none" fill="#3174f4" fill-rule="evenodd"/><path d="M 75.500 4.408 C 71.569 6.150, 67.641 9.905, 65.347 14.113 C 63.587 17.340, 63.487 22.766, 63.233 129.330 C 63.051 205.709, 63.302 242.407, 64.025 245.093 C 65.382 250.132, 70.375 255.811, 75.491 258.135 C 81.342 260.793, 106.658 260.793, 112.509 258.135 C 117.625 255.811, 122.618 250.132, 123.975 245.093 C 124.698 242.407, 124.949 205.686, 124.767 129.251 L 124.500 17.342 121.500 12.499 C 119.530 9.318, 116.987 6.856, 114.093 5.328 C 110.012 3.173, 108.529 3.003, 94.093 3.039 C 83.368 3.066, 77.563 3.493, 75.500 4.408 M 433.898 5.258 C 432.029 6.500, 429.457 9.538, 428.181 12.008 C 425.064 18.047, 425.713 23.698, 430.455 31.788 C 448.311 62.255, 458.468 110.417, 455.067 148.500 C 452.598 176.142, 445.377 202.248, 434.183 224 C 428.902 234.262, 427.734 237.402, 427.661 241.541 C 427.554 247.560, 430.066 252.454, 434.952 255.747 C 438.093 257.863, 439.319 258, 455.180 258 C 474.270 258, 477.703 257.176, 480.974 251.810 C 482.968 248.539, 482.993 247.094, 482.993 130.500 C 482.993 15.226, 482.947 12.426, 481.040 9.299 C 477.563 3.595, 475.121 3, 455.198 3 C 438.284 3, 437.108 3.125, 433.898 5.258 M 226.062 75.827 C 224.188 76.832, 221.824 79.195, 220.808 81.077 C 219.075 84.291, 218.978 87.447, 219.231 132.734 L 219.500 180.968 223.267 184.734 L 227.034 188.500 278.767 188.500 L 330.500 188.500 335.484 186.047 C 345.335 181.200, 353.607 169.286, 357.735 154 C 360.229 144.765, 360.219 118.173, 357.719 109 C 353.097 92.046, 344.326 80.137, 333.474 76.076 C 328.133 74.078, 326.078 74, 278.697 74 C 232.930 74, 229.229 74.128, 226.062 75.827 M 342.635 336.040 C 340.237 340.101, 332.085 346.430, 324.046 350.472 C 286.843 369.179, 226.505 364.474, 201.770 340.937 L 195.707 335.168 187.104 340.508 C 105.478 391.171, 40.206 511.296, 11.598 663.500 C 6.980 688.070, 0.021 737.439, 0.005 745.752 L 0 748.004 273.750 747.752 L 547.500 747.500 547.643 743 L 547.786 738.500 547.143 742.500 C 546.628 745.703, 546.243 743.964, 545.211 733.777 C 542.094 703.003, 535.186 661.762, 527.831 630.016 C 521.645 603.316, 516.694 585.862, 507.545 558.500 C 472.418 453.450, 418.834 375.683, 355.992 338.548 C 350.828 335.497, 346.114 333, 345.517 333 C 344.920 333, 343.623 334.368, 342.635 336.040 M 247 404.090 C 247 406.314, 259.231 438.526, 260.345 439.234 C 262.427 440.560, 285.654 440.133, 286.702 438.750 C 288.072 436.942, 299 406.663, 299 404.675 C 299 403.151, 296.652 403, 273 403 C 254.895 403, 247 403.331, 247 404.090 M 260.234 455.250 C 259.678 455.938, 256.248 471.049, 252.611 488.830 L 245.999 521.160 257.249 543.059 L 268.500 564.957 273.172 564.979 L 277.844 565 289.069 543.250 L 300.293 521.500 294.001 490 C 290.540 472.675, 287.335 457.488, 286.879 456.250 C 286.080 454.082, 285.596 454, 273.647 454 C 264.931 454, 260.944 454.372, 260.234 455.250 M 0.272 744 C 0.272 746.475, 0.467 747.487, 0.706 746.250 C 0.944 745.013, 0.944 742.987, 0.706 741.750 C 0.467 740.513, 0.272 741.525, 0.272 744" stroke="none" fill="#191b1e" fill-rule="evenodd"/></svg>