<svg width="35" height="36" viewBox="0 0 35 36" fill="none" xmlns="http://www.w3.org/2000/svg">
<path d="M34.566 14.7118H17.912V21.6138H27.496C26.604 25.9998 22.87 28.5198 17.912 28.5198C16.5247 28.5222 15.1505 28.2507 13.8684 27.7208C12.5862 27.1909 11.4213 26.4131 10.4404 25.432C9.4595 24.451 8.68193 23.2859 8.1523 22.0036C7.62267 20.7214 7.35139 19.3472 7.35403 17.9598C7.35166 16.5727 7.62313 15.1987 8.15288 13.9167C8.68263 12.6346 9.46023 11.4698 10.4411 10.4889C11.422 9.50803 12.5868 8.73043 13.8689 8.20068C15.1509 7.67093 16.5249 7.39946 17.912 7.40183C20.43 7.40183 22.706 8.29583 24.492 9.75783L29.692 4.55983C26.524 1.79783 22.462 0.0938261 17.912 0.0938261C15.5636 0.0869618 13.2371 0.544446 11.0661 1.43997C8.89518 2.33549 6.9227 3.65137 5.26214 5.31194C3.60157 6.9725 2.28569 8.94498 1.39017 11.1159C0.494647 13.2869 0.0371631 15.6134 0.0440274 17.9618C0.0368976 20.3103 0.4942 22.637 1.38963 24.808C2.28505 26.9791 3.60093 28.9517 5.26154 30.6123C6.92216 32.2729 8.89475 33.5888 11.0658 34.4842C13.2369 35.3797 15.5636 35.837 17.912 35.8298C26.846 35.8298 34.97 29.3318 34.97 17.9618C34.97 16.9058 34.808 15.7678 34.566 14.7118Z" fill="#0B090A"/>
</svg>
