<svg width="48" height="48" viewBox="0 0 48 48" fill="none" xmlns="http://www.w3.org/2000/svg">
<path d="M39.266 15.9941C39.292 16.3441 39.292 16.6921 39.292 17.0401C39.292 27.6901 31.186 39.9621 16.372 39.9621C11.808 39.9621 7.568 38.6401 4 36.3441C4.648 36.4181 5.272 36.4441 5.946 36.4441C9.57199 36.4528 13.0953 35.2404 15.948 33.0021C14.2668 32.9717 12.6372 32.417 11.2865 31.4156C9.9358 30.4141 8.93157 29.0159 8.414 27.4161C8.912 27.4901 9.412 27.5401 9.936 27.5401C10.658 27.5401 11.384 27.4401 12.058 27.2661C10.2335 26.8977 8.59295 25.9088 7.41524 24.4675C6.23753 23.0261 5.59539 21.2214 5.598 19.3601V19.2601C6.672 19.8581 7.918 20.2321 9.238 20.2821C8.13218 19.5473 7.22544 18.5501 6.59868 17.3797C5.97192 16.2092 5.64463 14.9018 5.646 13.5741C5.646 12.0781 6.044 10.7061 6.742 9.51009C8.76628 12.0001 11.291 14.0372 14.1527 15.4894C17.0143 16.9416 20.1491 17.7765 23.354 17.9401C23.23 17.3401 23.154 16.7181 23.154 16.0941C23.1535 15.036 23.3615 13.9882 23.7662 13.0106C24.1708 12.0329 24.7642 11.1446 25.5124 10.3965C26.2605 9.64829 27.1488 9.05491 28.1265 8.65024C29.1041 8.24558 30.1519 8.03756 31.21 8.03809C33.53 8.03809 35.624 9.01009 37.096 10.5821C38.8995 10.2333 40.6291 9.57493 42.208 8.63609C41.6068 10.4977 40.3475 12.0763 38.666 13.0761C40.2656 12.8936 41.8289 12.473 43.304 11.8281C42.2023 13.4343 40.837 14.8428 39.266 15.9941Z" fill="#0B090A"/>
</svg>
