<svg width="48" height="48" viewBox="0 0 48 48" fill="none" xmlns="http://www.w3.org/2000/svg">
<path d="M43.158 13.7101C43.438 12.7801 43.158 12.0981 41.834 12.0981H37.448C36.332 12.0981 35.822 12.6881 35.542 13.3361C35.542 13.3361 33.312 18.7741 30.152 22.3001C29.132 23.3261 28.666 23.6501 28.11 23.6501C27.832 23.6501 27.428 23.3261 27.428 22.3961V13.7101C27.428 12.5941 27.106 12.0981 26.176 12.0981H19.284C18.588 12.0981 18.168 12.6141 18.168 13.1061C18.168 14.1621 19.748 14.4061 19.91 17.3821V23.8381C19.91 25.2521 19.656 25.5101 19.096 25.5101C17.61 25.5101 13.994 20.0521 11.848 13.8041C11.43 12.5901 11.008 12.1001 9.888 12.1001H5.504C4.25 12.1001 4 12.6901 4 13.3381C4 14.5021 5.486 20.2621 10.922 27.8801C14.546 33.0821 19.648 35.9021 24.296 35.9021C27.082 35.9021 27.426 35.2761 27.426 34.1961V30.2641C27.426 29.0121 27.692 28.7601 28.574 28.7601C29.222 28.7601 30.338 29.0881 32.94 31.5941C35.912 34.5661 36.404 35.9001 38.074 35.9001H42.458C43.71 35.9001 44.336 35.2741 43.976 34.0381C43.582 32.8081 42.162 31.0181 40.278 28.9001C39.254 27.6921 37.724 26.3921 37.258 25.7421C36.608 24.9041 36.796 24.5341 37.258 23.7901C37.26 23.7921 42.602 16.2681 43.158 13.7101V13.7101Z" fill="#0B090A"/>
</svg>
