<svg width="29.473633" height="28.000000" viewBox="0 0 29.4736 28" fill="none" xmlns="http://www.w3.org/2000/svg" xmlns:xlink="http://www.w3.org/1999/xlink">
	<defs/>
	<path id="Vector" d="M26.5264 0L2.94727 0C1.32178 0 0 1.3219 0 2.94739L0 19.1578C0 20.7833 1.32178 22.1052 2.94727 22.1052L13.2632 22.1052L13.2632 25.0526L8.84204 25.0526L8.84204 28L20.6316 28L20.6316 25.0526L16.2104 25.0526L16.2104 22.1052L26.5264 22.1052C28.1519 22.1052 29.4736 20.7833 29.4736 19.1578L29.4736 2.94739C29.4736 1.3219 28.1519 0 26.5264 0ZM2.94727 16.2106L2.94727 2.94739L26.5264 2.94739L26.5293 16.2106L2.94727 16.2106Z" fill="#3174F4" fill-opacity="1.000000" fill-rule="evenodd"/>
</svg>
