<svg width="28.026855" height="28.000000" viewBox="0 0 28.0269 28" fill="none" xmlns="http://www.w3.org/2000/svg" xmlns:xlink="http://www.w3.org/1999/xlink">
	<defs/>
	<path id="Vector" d="M23.4744 0.806763C22.3911 -0.272217 20.5022 -0.267944 19.4275 0.813965L16.8743 3.37695L13.7173 6.53394L7.15454 6.53394C6.86084 6.53369 6.57422 6.62402 6.33374 6.79248C6.09326 6.96106 5.91064 7.19958 5.81079 7.47559L0.0864258 23.2175C-0.104004 23.7399 0.0263672 24.3251 0.418457 24.7186L3.28052 27.5808C3.4729 27.7737 3.71655 27.9075 3.98267 27.9663C4.24854 28.0251 4.52588 28.0066 4.78174 27.9128L20.5237 22.1885C20.7996 22.0885 21.0381 21.9058 21.2065 21.6654C21.3752 21.4249 21.4653 21.1383 21.4653 20.8447L21.4653 14.2819L24.6235 11.1234L24.6235 11.1219L24.625 11.1219L27.1895 8.55029C27.7305 8.0094 28.0281 7.28955 28.0269 6.52539C28.0269 5.75977 27.7275 5.03992 27.1853 4.50037L23.4744 0.806763ZM19.0225 12.6776C18.8892 12.8103 18.7837 12.9679 18.7117 13.1416C18.6396 13.3152 18.6028 13.5013 18.603 13.6893L18.603 19.843L5.36694 24.6558L12.0515 17.9712C12.0889 17.9725 12.126 17.9825 12.1633 17.9825C12.5879 17.9825 13.0029 17.8567 13.3557 17.6208C13.7087 17.3849 13.9839 17.0497 14.1465 16.6575C14.3088 16.2651 14.3513 15.8336 14.2686 15.4172C14.1858 15.0007 13.9814 14.6183 13.6812 14.3181C13.3809 14.0178 12.9985 13.8135 12.582 13.7306C12.1655 13.6478 11.7339 13.6903 11.3418 13.8528C10.9495 14.0153 10.6143 14.2904 10.3784 14.6433C10.1426 14.9963 10.0166 15.4114 10.0166 15.8359C10.0166 15.8732 10.0266 15.9104 10.0281 15.9476L3.34351 22.6322L8.15625 9.39612L14.3098 9.39612C14.6904 9.39612 15.054 9.24585 15.3215 8.97681L17.8875 6.41089L21.5884 10.1117L19.0225 12.6776ZM23.6104 8.08667L19.9097 4.38586L21.4539 2.83459L25.1646 6.5282L23.6104 8.08667Z" fill="#3174F4" fill-opacity="1.000000" fill-rule="evenodd"/>
</svg>
