<svg width="28.000000" height="28.000000" viewBox="0 0 28 28" fill="none" xmlns="http://www.w3.org/2000/svg" xmlns:xlink="http://www.w3.org/1999/xlink">
	<defs/>
	<path id="Vector" d="M24.8889 0L3.11108 0C1.39526 0 0 1.39539 0 3.11108L0 24.8889C0 26.6046 1.39526 28 3.11108 28L24.8889 28C26.6047 28 28 26.6046 28 24.8889L28 3.11108C28 1.39539 26.6047 0 24.8889 0ZM9.33325 12.4445L9.33325 3.11108L18.6667 3.11108L18.6667 12.4445L9.33325 12.4445ZM18.6667 15.5555L18.6667 24.8889L9.33325 24.8889L9.33325 15.5555L18.6667 15.5555ZM3.11108 3.11108L6.22217 3.11108L6.22217 6.22217L3.11108 6.22217L3.11108 3.11108ZM3.11108 9.33337L6.22217 9.33337L6.22217 12.4445L3.11108 12.4445L3.11108 9.33337ZM3.11108 15.5555L6.22217 15.5555L6.22217 18.6666L3.11108 18.6666L3.11108 15.5555ZM3.11108 21.7778L6.22217 21.7778L6.22217 24.8889L3.11108 24.8889L3.11108 21.7778ZM24.8921 24.8889L21.7778 24.8889L21.7778 21.7778L24.8921 21.7778L24.8921 24.8889ZM24.8904 18.6666L21.7778 18.6666L21.7778 15.5555L24.8904 15.5555L24.8904 18.6666ZM24.8904 12.4445L21.7778 12.4445L21.7778 9.33337L24.8904 9.33337L24.8904 12.4445ZM21.7778 6.22217L21.7778 3.11108L24.8889 3.11108L24.8889 6.22217L21.7778 6.22217Z" fill="#3174F4" fill-opacity="1.000000" fill-rule="evenodd"/>
</svg>
