<svg width="28.000000" height="28.000000" viewBox="0 0 28 28" fill="none" xmlns="http://www.w3.org/2000/svg" xmlns:xlink="http://www.w3.org/1999/xlink">
	<defs/>
	<path id="Vector" d="M24.8889 0L3.11108 0C1.39526 0 0 1.39539 0 3.11108L0 24.8889C0 26.6046 1.39526 28 3.11108 28L24.8889 28C26.6047 28 28 26.6046 28 24.8889L28 3.11108C28 1.39539 26.6047 0 24.8889 0ZM24.8889 3.11108L24.8904 9.33337L3.11108 9.33337L3.11108 3.11108L24.8889 3.11108ZM3.11108 12.4445L15.5557 12.4445L15.5557 24.8889L3.11108 24.8889L3.11108 12.4445ZM18.6667 24.8889L18.6667 12.4445L24.8904 12.4445L24.8921 24.8889L18.6667 24.8889Z" fill="#3174F4" fill-opacity="1.000000" fill-rule="evenodd"/>
</svg>
